<svg width="100%" height="100%" viewBox="0 0 141 48" fill="none" xmlns="http://www.w3.org/2000/svg">
    <path d="M75.3262 18.2939C74.5874 16.3837 73.0361 14.8408 71.1154 14.1061C70.0811 13.6653 68.8992 13.5184 67.791 13.5184C65.3532 13.5184 62.9892 13.5184 60.9208 14.2531C60.5514 14.4 60.2559 14.6204 60.0343 14.9143C59.8127 15.2082 59.6649 15.5755 59.6649 15.9429V34.3102C59.6649 34.6041 59.8127 34.9714 60.0343 35.1918C60.4775 35.6327 61.2163 35.6327 61.7334 35.1918C61.955 34.9714 62.1028 34.6776 62.1028 34.3102V16.2367L62.3983 16.1633C64.1712 15.649 65.9442 15.7959 67.8649 15.7959C69.4163 15.7225 70.8937 16.2367 72.0019 17.3388C73.0361 18.4408 73.6271 19.9837 73.4793 21.5265V34.2367C73.4793 34.5306 73.6271 34.898 73.8487 35.1184C74.3658 35.5592 75.1046 35.5592 75.5478 35.0449C75.7694 34.8245 75.8433 34.5306 75.8433 34.2367V21.7469C75.9172 20.498 75.7694 19.3225 75.3262 18.2939Z" fill="currentColor"></path>
    <path fill-rule="evenodd" clip-rule="evenodd" d="M96.0109 14.1796C96.8973 14.4 97.71 14.8408 98.4487 15.4286C99.1136 16.0163 99.7046 16.6775 100.148 17.4122C100.591 18.1469 100.739 18.9551 100.665 19.7633V32.6204C100.591 33.3551 100.148 34.0898 99.4091 34.3102C98.3748 34.751 97.1928 35.0449 96.0847 35.1918C94.9028 35.4122 93.7946 35.4857 92.6127 35.4857C89.8793 35.4857 87.8109 34.8245 86.4073 33.5755C85.0775 32.3265 84.3388 30.5633 84.4865 28.7265C84.4865 26.7429 85.0775 26.1551 86.4073 24.9061C87.146 24.2449 87.9586 23.8041 88.919 23.5837C90.1748 23.2898 91.3568 23.1429 92.6127 23.1429H98.301V19.8367C98.3748 18.6612 97.8577 17.5592 96.8973 16.9714C95.7892 16.2367 94.3856 15.7959 93.0559 15.8694C92.0955 15.8694 91.1352 16.0163 90.2487 16.3102C89.2883 16.6775 88.4019 17.0449 87.5154 17.5592C87.0721 17.8531 86.4811 17.7796 86.1118 17.4122C85.8163 17.1918 85.7424 16.898 85.7424 16.6041C85.8163 16.1633 86.0379 15.7959 86.4073 15.5755C87.3676 14.9143 88.4757 14.4735 89.6577 14.1796C91.7262 13.5918 93.9424 13.5918 96.0109 14.1796ZM97.8577 32.5469L98.1532 32.4735V25.3469H92.4649C91.5046 25.2735 90.4703 25.4204 89.51 25.7143C88.8451 25.8612 88.2541 26.2286 87.737 26.7429C87.3676 27.1837 87.0721 27.6245 86.9244 28.2122C86.7766 28.9469 86.7766 29.6082 86.9244 30.2694C87.0721 30.8571 87.3676 31.3714 87.737 31.8122C88.2541 32.3265 88.8451 32.6939 89.51 32.9143C90.4703 33.2816 91.4307 33.4286 92.4649 33.3551C94.3118 33.3551 96.0847 33.0612 97.8577 32.5469Z" fill="currentColor"></path>
    <path d="M113.297 30.4163V1.61632C113.297 1.02857 112.78 0.514282 112.189 0.514282C111.598 0.514282 111.081 1.02857 111.081 1.61632V30.4163C111.081 33.7224 112.559 35.4857 115.514 35.4857C116.105 35.4857 116.548 34.9714 116.474 34.4571C116.474 33.9429 116.031 33.502 115.514 33.502H115.44C113.297 33.4286 113.297 31.151 113.297 30.4163Z" fill="currentColor"></path>
    <path fill-rule="evenodd" clip-rule="evenodd" d="M122.162 24.7592C122.162 17.7061 125.413 14.0327 131.544 14.0327C137.602 14.0327 140.926 17.7796 140.926 24.7592C140.926 31.7388 137.676 35.4857 131.544 35.4857C125.413 35.4857 122.162 31.8122 122.162 24.7592ZM124.452 24.7592C124.452 30.6367 126.816 33.5755 131.544 33.5755C136.198 33.5755 138.636 30.5633 138.636 24.7592C138.636 18.8816 136.272 15.9429 131.544 15.9429C126.816 15.9429 124.452 18.8816 124.452 24.7592Z" fill="currentColor"></path>
    <path fill-rule="evenodd" clip-rule="evenodd" d="M41.0618 10.0503C42.5309 11.0755 43.4858 12.6865 43.6327 14.5172C43.9265 17.5927 44 20.7414 44 23.9634C44 27.2586 43.8531 30.4073 43.6327 33.4828C43.4858 35.3135 42.5309 36.9245 41.0618 37.9497C38.4908 39.7071 35.773 41.3913 32.9816 43.0023C30.1903 44.6133 27.399 46.0778 24.6077 47.3959C22.9917 48.2014 21.0818 48.2014 19.3923 47.3959C16.601 46.0778 13.8097 44.6133 11.0184 43.0023C8.15359 41.3913 5.50918 39.7071 2.93823 37.9497C1.46912 36.9245 0.51419 35.3135 0.367279 33.4828C0.146912 30.4073 0 27.1854 0 23.9634C0 20.7414 0.0734558 17.5927 0.367279 14.5172C0.51419 12.6865 1.46912 11.0755 2.93823 10.0503C5.50918 8.29291 8.22705 6.6087 11.0184 4.99771C13.8097 3.38673 16.601 1.9222 19.3923 0.604119C21.0083 -0.201373 22.9182 -0.201373 24.6077 0.604119C27.399 1.9222 30.1903 3.38673 32.9816 4.99771C35.8464 6.6087 38.4908 8.29291 41.0618 10.0503ZM12.1937 7.04805C14.9115 5.5103 17.7028 4.04577 20.4207 2.72769C21.4491 2.28833 22.5509 2.28833 23.5793 2.72769C23.9221 2.89855 24.2649 3.06127 24.6077 3.224C25.2933 3.54945 25.9789 3.8749 26.6644 4.26545C26.1502 4.19222 25.5626 4.19222 25.0484 4.33867C22.4775 4.85126 19.8331 5.43707 17.1886 6.09611C14.8381 6.75515 12.5609 7.41419 10.3573 8.21968C10.9449 7.78032 11.5326 7.41419 12.1937 7.04805ZM4.26043 12.0275C3.37896 12.6865 2.79132 13.6384 2.71786 14.7368C2.4975 17.7391 2.35058 20.8879 2.35058 24.0366V26.1602C2.79132 23.8902 3.30551 21.5469 3.96661 19.2037C4.62771 16.5675 5.43573 14.0046 6.31719 11.5881C6.53756 11.0023 6.75793 10.5629 7.12521 10.1236C6.17028 10.7094 5.21536 11.3684 4.26043 12.0275ZM39.6661 35.9725C40.5476 35.3135 41.1352 34.3616 41.2087 33.2632C41.429 30.2609 41.576 27.1121 41.576 23.9634V21.8398C41.1352 24.1098 40.621 26.4531 39.9599 28.7963C39.2988 31.4325 38.4908 33.9222 37.6093 36.4119C37.389 36.9245 37.1686 37.4371 36.8013 37.8764C37.7563 37.2906 38.7112 36.6316 39.6661 35.9725ZM23.5793 45.2723C26.2972 43.9542 29.0885 42.4897 31.8063 40.9519C32.394 40.5858 32.9816 40.2197 33.6427 39.7803C31.4391 40.5858 29.1619 41.2449 26.8114 41.9039C24.1669 42.5629 21.5225 43.222 18.9516 43.6613C18.4374 43.8078 17.8498 43.8078 17.3356 43.7346C18.0211 44.1251 18.7067 44.4505 19.3922 44.776L19.3923 44.776C19.7351 44.9387 20.0779 45.1014 20.4207 45.2723C21.4491 45.7117 22.5509 45.7117 23.5793 45.2723ZM4.26043 35.9725C3.37896 35.3867 2.79132 34.3616 2.71786 33.2632C2.64441 32.1648 2.57095 30.9931 2.4975 29.8215C2.71786 30.3341 3.01168 30.7734 3.3055 31.2128L3.30551 31.2128C4.99499 33.1899 6.83139 35.167 8.74124 37.0709C10.4307 38.7551 12.1937 40.3661 13.9566 41.9039C13.7481 41.7884 13.547 41.6803 13.3508 41.5748L13.3508 41.5748C12.9249 41.3457 12.5225 41.1294 12.1202 40.8787C9.47579 39.341 6.83139 37.73 4.26043 35.9725ZM26.1502 39.6339C28.7212 38.9016 31.2187 38.1693 33.6427 37.2906C34.3773 36.9977 35.0384 36.4119 35.3322 35.6064C36.2137 33.1899 37.0217 30.7002 37.6828 28.1373C38.4174 25.6476 39.005 23.0114 39.4457 20.5217C39.5927 19.7162 39.3723 18.9108 38.8581 18.3249C37.1687 16.4211 35.3323 14.5173 33.496 12.6134L33.4958 12.6133C31.6594 10.7094 29.7496 8.95195 27.7663 7.26773C27.1786 6.75515 26.3706 6.53547 25.5626 6.68192C23.0651 7.19451 20.4942 7.78032 17.9232 8.43936C15.3523 9.17163 12.8548 9.90389 10.4307 10.7826C9.6227 11.0755 9.03506 11.6613 8.74124 12.4668C7.85977 14.8833 7.05175 17.373 6.39065 19.9359C5.65609 22.4256 5.06845 25.0618 4.62771 27.5515C4.4808 28.357 4.70117 29.1625 5.21536 29.7483C6.90484 31.6522 8.74124 33.6293 10.5776 35.46C12.414 37.3638 14.3239 39.1213 16.3072 40.8055C16.8948 41.3181 17.7028 41.5378 18.5109 41.3913C21.0083 40.8787 23.5793 40.2929 26.1502 39.6339ZM39.6661 12.0275C40.5476 12.6133 41.1352 13.6384 41.2087 14.7368C41.2821 15.8352 41.3556 17.0069 41.429 18.1785C41.2087 17.6659 40.9149 17.2266 40.6211 16.7873L40.6211 16.7872L40.621 16.7872C38.9316 14.8101 37.0952 12.833 35.1853 10.9291C33.4958 9.24485 31.7329 7.63387 29.9699 6.09611C30.1784 6.21155 30.3795 6.31972 30.5757 6.42519L30.5758 6.42522L30.5758 6.42525C31.0017 6.65427 31.404 6.87061 31.8063 7.12128C34.5242 8.58581 37.1686 10.27 39.6661 12.0275Z" fill="currentColor"></path>
</svg>