<svg version="1.1" id="Layer_1" xmlns="http://www.w3.org/2000/svg" xmlns:xlink="http://www.w3.org/1999/xlink" viewBox="0 0 32 32" style="enable-background:new 0 0 32 32;" xml:space="preserve">
<path d="M16.1,24c5.7-5.2,9.5-8.6,9.5-12.1c0-2.4-1.8-4.2-4.2-4.2c-1.9,0-3.7,1.2-4.3,2.8h-2.3c-0.6-1.6-2.4-2.8-4.3-2.8
	c-2.4,0-4.2,1.7-4.2,4.2c0,3.5,3.8,6.9,9.5,12.1l0.1,0.1L16.1,24L16.1,24z M21.4,5.3c3.7,0,6.6,2.9,6.6,6.6c0,4.6-4.1,8.2-10.3,13.9
	L16,27.4l-1.7-1.5C8.1,20.2,4,16.5,4,11.9c0-3.7,2.9-6.6,6.6-6.6c2.1,0,4.1,1,5.4,2.5C17.3,6.3,19.3,5.3,21.4,5.3L21.4,5.3z"/>
</svg>
